HIERARCHY
ROOT Hips
{
	OFFSET 0.00000 0.00000 0.00000
	CHANNELS 6 Xposition Yposition Zposition Zrotation Yrotation Xrotation 
	JOINT LHipJoint
	{
		OFFSET 0 0 0
		CHANNELS 3 Zrotation Yrotation Xrotation
		JOINT LeftUpLeg
		{
			OFFSET 1.48211 -1.84579 0.74791
			CHANNELS 3 Zrotation Yrotation Xrotation
			JOINT LeftLeg
			{
				OFFSET 2.56990 -7.06075 0.00000
				CHANNELS 3 Zrotation Yrotation Xrotation
				JOINT LeftFoot
				{
					OFFSET 2.57933 -7.08667 0.00000
					CHANNELS 3 Zrotation Yrotation Xrotation
					JOINT LeftToeBase
					{
						OFFSET 0.22969 -0.63106 2.10885
						CHANNELS 3 Zrotation Yrotation Xrotation
						End Site
						{
							OFFSET 0.00000 -0.00000 1.10362
						}
					}
				}
			}
		}
	}
	JOINT RHipJoint
	{
		OFFSET 0 0 0
		CHANNELS 3 Zrotation Yrotation Xrotation
		JOINT RightUpLeg
		{
			OFFSET -1.46257 -1.84580 0.74791
			CHANNELS 3 Zrotation Yrotation Xrotation
			JOINT RightLeg
			{
				OFFSET -2.63352 -7.23555 0.00000
				CHANNELS 3 Zrotation Yrotation Xrotation
				JOINT RightFoot
				{
					OFFSET -2.53360 -6.96100 0.00000
					CHANNELS 3 Zrotation Yrotation Xrotation
					JOINT RightToeBase
					{
						OFFSET -0.19079 -0.52420 2.00624
						CHANNELS 3 Zrotation Yrotation Xrotation
						End Site
						{
							OFFSET -0.00000 -0.00000 1.04369
						}
					}
				}
			}
		}
	}
	JOINT LowerBack
	{
		OFFSET 0 0 0
		CHANNELS 3 Zrotation Yrotation Xrotation
		JOINT Spine
		{
			OFFSET -0.02583 2.09021 -0.27313
			CHANNELS 3 Zrotation Yrotation Xrotation
			JOINT Spine1
			{
				OFFSET 0.02621 2.11682 -0.03538
				CHANNELS 3 Zrotation Yrotation Xrotation
				JOINT Neck
				{
					OFFSET 0 0 0
					CHANNELS 3 Zrotation Yrotation Xrotation
					JOINT Neck1
					{
						OFFSET 0.02848 1.69944 0.27193
						CHANNELS 3 Zrotation Yrotation Xrotation
						JOINT Head
						{
							OFFSET -0.09826 1.73070 -0.26626
							CHANNELS 3 Zrotation Yrotation Xrotation
							End Site
							{
								OFFSET -0.03061 1.75878 -0.12207
							}
						}
					}
				}
				JOINT LeftShoulder
				{
					OFFSET 0 0 0
					CHANNELS 3 Zrotation Yrotation Xrotation
					JOINT LeftArm
					{
						OFFSET 3.42696 0.97228 -0.33778
						CHANNELS 3 Zrotation Yrotation Xrotation
						JOINT LeftForeArm
						{
							OFFSET 5.25525 -0.00000 0.00000
							CHANNELS 3 Zrotation Yrotation Xrotation
							JOINT LeftHand
							{
								OFFSET 3.35106 -0.00000 0.00000
								CHANNELS 3 Zrotation Yrotation Xrotation
								JOINT LeftFingerBase
								{
									OFFSET 0 0 0
									CHANNELS 3 Zrotation Yrotation Xrotation
									JOINT LeftHandIndex1
									{
										OFFSET 0.57415 -0.00000 0.00000
										CHANNELS 3 Zrotation Yrotation Xrotation
										End Site
										{
											OFFSET 0.46290 -0.00000 0.00000
										}
									}
								}
								JOINT LThumb
								{
									OFFSET 0 0 0
									CHANNELS 3 Zrotation Yrotation Xrotation
									End Site
									{
										OFFSET 0.46996 -0.00000 0.46996
									}
								}
							}
						}
					}
				}
				JOINT RightShoulder
				{
					OFFSET 0 0 0
					CHANNELS 3 Zrotation Yrotation Xrotation
					JOINT RightArm
					{
						OFFSET -3.28720 1.02454 -0.32654
						CHANNELS 3 Zrotation Yrotation Xrotation
						JOINT RightForeArm
						{
							OFFSET -5.33104 -0.00000 0.00000
							CHANNELS 3 Zrotation Yrotation Xrotation
							JOINT RightHand
							{
								OFFSET -3.39883 -0.00000 0.00000
								CHANNELS 3 Zrotation Yrotation Xrotation
								JOINT RightFingerBase
								{
									OFFSET 0 0 0
									CHANNELS 3 Zrotation Yrotation Xrotation
									JOINT RightHandIndex1
									{
										OFFSET -0.91389 -0.00000 0.00000
										CHANNELS 3 Zrotation Yrotation Xrotation
										End Site
										{
											OFFSET -0.73680 -0.00000 0.00000
										}
									}
								}
								JOINT RThumb
								{
									OFFSET 0 0 0
									CHANNELS 3 Zrotation Yrotation Xrotation
									End Site
									{
										OFFSET -0.74805 -0.00000 0.74805
									}
								}
							}
						}
					}
				}
			}
		}
	}
}
MOTION
Frames: 11
Frame Time: 0.0103093
0.00 0.00 0.00 0 0 0 0 0 0 -21 0 0 0 0 0 0 0 0 0 0 0 0 0 0 21 0 0 0 0 0 0 0 0 0 0 0 0 0 0 0 0 0 0 0 0 0 0 -16 0 0 21 0 0 11 0 0 0 -8 0 0 0 0 0 0 0 0 0 0 0 0 0 0 0 0 0 0 0 0 8 0 0 0 0 0 0 0 0 0 0 0 0 0 0 0 0 0
0.00 0.00 0.00 142.3240 -84.8851 -154.9420 0.0000 0.0000 0.0000 -17.6899 -1.2818 3.3667 5.2046 13.6106 41.6992 -0.2931 -14.1628 -5.9994 0.9416 -6.1803 -17.3085 0.0000 0.0000 0.0000 5.2885 -14.5837 -7.5222 -9.1532 -16.9053 56.6184 0.0395 4.0790 -0.7042 -1.0561 6.5343 -18.3428 -3.7412 -3.0274 17.0226 0.5027 -4.7928 -2.4557 3.9552 -1.9721 -11.9514 0.6838 -6.8156 -22.7913 -4.9003 -8.5557 11.7499 -2.7632 -4.5575 7.0128 0.0000 0.0000 0.0000 66.1550 -26.8792 -77.6226 26.9833 -38.1632 -9.4888 -0.0000 0.0000 -32.5561 46.6917 31.0426 28.6815 -7.1250 0.0000 -0.0000 24.3513 69.8497 14.7701 0.0000 0.0000 0.0000 -71.8591 36.3079 -96.2253 -36.5954 45.9183 -15.9487 0.0000 -0.0000 -66.1831 -27.5274 -3.6791 1.9154 7.1250 -0.0000 -0.0000 -0.7432 -34.1263 -0.1983
0.00 0.00 0.00 28.9646 -83.6089 -37.4864 0.0000 0.0000 0.0000 -15.1824 -6.7493 9.0487 2.8804 10.4990 30.6081 0.0008 0.3043 0.5023 2.0761 -9.0228 -25.8666 0.0000 0.0000 0.0000 9.1668 -9.7947 1.7806 -4.3688 -12.6357 38.0195 0.0373 -4.4200 -4.5845 -0.6281 5.0711 -14.1116 -4.0213 -4.1899 14.2622 -0.7641 -6.6716 -6.3856 3.1657 -2.7534 -14.8510 1.4706 -12.0683 -23.3406 -4.6754 -15.8130 11.8546 -3.6227 -7.9719 6.8077 0.0000 0.0000 0.0000 70.9848 -19.7314 -69.3094 24.2751 -35.4538 -7.8656 -0.0000 0.0000 -33.5337 23.8142 24.0180 10.1839 -7.1250 0.0000 -0.0000 -5.9922 55.8492 -1.5992 0.0000 0.0000 0.0000 -68.8443 31.7364 -92.8428 -32.8313 43.2000 -13.3065 0.0000 -0.0000 -54.1548 -35.6087 -8.1120 5.7705 7.1250 -0.0000 -0.0000 -7.6701 -39.8102 -0.9879
0.00 0.00 0.00 22.4899 -80.0316 -32.4955 0.0000 0.0000 0.0000 -14.4384 -7.5053 11.3052 2.7762 10.3236 30.0310 -0.2301 -8.4716 3.2973 4.5294 -12.8334 -38.7478 0.0000 0.0000 0.0000 5.1943 -1.8555 1.7682 -4.1061 -12.3002 36.8024 0.0730 -9.2296 -11.7551 -0.3808 3.9630 -10.9727 -3.6446 -3.2966 15.5172 -1.1053 -5.3472 -4.2927 2.2433 -2.2527 -13.3039 0.6845 -9.1477 -19.1938 -5.8387 -11.6029 10.7555 -3.1571 -6.1005 5.9485 0.0000 0.0000 0.0000 72.6696 -18.2456 -87.0488 20.9527 -31.7731 -6.0250 -0.0000 0.0000 -44.5730 17.5849 26.3063 7.9951 -7.1250 0.0000 -0.0000 -13.6061 56.8696 -4.0088 0.0000 0.0000 0.0000 -72.6063 27.7140 -99.4213 -26.1773 37.3833 -8.9951 0.0000 -0.0000 -40.4507 -27.1620 -9.9230 5.0529 7.1250 -0.0000 -0.0000 -0.1432 -41.1036 -0.0138
0.00 0.00 0.00 6.5996 -70.2201 -17.7629 0.0000 0.0000 0.0000 -7.6677 -15.0478 11.5375 3.6108 11.6237 34.4133 -0.1705 -8.0181 -0.6062 3.9682 -12.1180 -36.1507 0.0000 0.0000 0.0000 10.0389 -13.2015 -0.1092 -5.7012 -14.1324 43.7705 -1.2934 -3.3905 -22.9434 -1.1747 6.8793 -19.3583 -4.1251 -1.9484 14.7631 -2.2159 -3.6850 -3.2962 0.8080 -1.5520 -11.8466 -1.1944 -5.8088 -21.6647 -5.4242 -6.4510 16.7538 -2.5262 -3.7324 8.6385 -0.0000 0.0000 0.0000 54.3424 -31.1703 -77.0769 37.1560 -46.2917 -16.3527 -0.0000 0.0000 -65.6030 28.9071 36.0281 17.9932 -7.1250 0.0000 -0.0000 -6.9683 69.5851 -4.1070 -0.0000 0.0000 0.0000 -73.9413 29.2228 -83.0196 -34.6807 44.5828 -14.5888 0.0000 -0.0000 -24.5950 10.5693 -7.1225 -1.3253 7.1250 -0.0000 -0.0000 30.3483 -35.4676 8.0762
0.00 0.00 0.00 -1.6524 -67.3469 -10.0798 0.0000 0.0000 0.0000 -3.7486 -15.4064 6.2653 4.3920 12.6645 38.1251 0.1927 0.7132 8.0689 3.8246 -11.9233 -35.4612 0.0000 0.0000 0.0000 12.4232 -15.1778 0.5410 -5.5776 -14.0061 43.2619 -0.1418 4.8951 -7.0396 -1.0971 6.6560 -18.7002 -1.8199 -1.6712 12.7408 -1.9197 -2.7427 -2.8695 -0.4565 -1.2762 -10.2893 -0.1671 -4.4290 -23.7030 -5.8249 -4.6825 19.5578 -2.7551 -2.9194 9.9882 0.0000 0.0000 0.0000 42.5840 -38.8155 -72.8070 46.8766 -51.6554 -23.7016 -0.0000 0.0000 -69.8994 27.6560 35.5724 16.9536 -7.1250 0.0000 -0.0000 -8.2747 68.7332 -4.7219 0.0000 0.0000 0.0000 -74.0616 33.6497 -79.9983 -38.6693 47.2615 -17.4555 0.0000 -0.0000 -24.2277 51.7271 46.7696 42.7215 7.1250 -0.0000 -0.0000 38.9654 21.2800 62.6721
0.00 0.00 0.00 -1.7915 -62.7079 -12.1589 0.0000 0.0000 0.0000 -6.0515 -13.6562 0.9387 4.1077 12.3023 36.8101 -0.8122 -15.8804 3.4926 5.0353 -13.4235 -40.9751 0.0000 0.0000 0.0000 7.3085 -9.4665 4.2927 -5.6601 -14.0907 43.6018 -0.2464 -3.3086 -11.1959 -0.6413 5.1233 -14.2606 -1.0411 -0.5518 14.1204 -1.4795 -1.0673 -1.3355 -0.7663 -0.5085 -9.4012 0.3848 -2.5889 -23.2173 -3.5798 -2.8709 19.3099 -1.7617 -1.7516 9.9010 -0.0000 0.0000 0.0000 22.8216 -55.7135 -70.9930 55.0855 -54.8514 -30.2859 -0.0000 0.0000 -72.8794 22.8581 34.9114 13.5640 -7.1250 0.0000 -0.0000 -13.8469 66.6305 -7.2775 -0.0000 0.0000 0.0000 -78.4665 44.6763 -77.5506 -40.7114 48.4858 -18.9702 0.0000 -0.0000 -24.6378 123.0788 -76.4015 -123.8280 7.1250 -0.0000 -0.0000 47.7216 55.4337 69.7149
0.00 0.00 0.00 -3.1309 -59.9380 -11.3151 0.0000 0.0000 0.0000 -7.5684 -16.5126 1.1321 3.9932 12.1513 36.2694 -0.3237 -12.3310 -3.1527 2.5226 -9.8789 -28.5853 0.0000 0.0000 0.0000 4.9425 -6.0379 7.2980 -4.5598 -12.8702 38.8844 0.9694 -20.0091 -18.6527 -0.7464 -5.5187 15.3941 0.6205 -0.4358 13.8140 -0.7410 -0.5561 -0.3762 -1.0259 -0.3191 -8.1849 0.1196 -1.9337 -23.2482 -3.4171 -1.9099 19.3780 -1.5201 -1.3082 9.9609 0.0000 0.0000 0.0000 7.0162 -63.4930 -61.0755 63.3030 -57.1277 -37.1027 -0.0000 0.0000 -74.2327 21.9390 34.3664 12.8094 -7.1250 0.0000 -0.0000 -14.4510 65.8374 -7.3376 0.0000 0.0000 0.0000 -79.7256 50.1592 -74.2021 -41.9038 49.1582 -19.8677 0.0000 -0.0000 -27.0037 -96.9217 -34.9678 101.9597 7.1250 -0.0000 -0.0000 -42.4720 61.7787 -58.5807
0.00 0.00 0.00 -0.7680 -57.6347 -12.7242 0.0000 0.0000 0.0000 -5.4807 -18.7902 0.0513 4.0864 12.2746 36.7103 0.5318 -10.6914 -14.0141 4.2183 -12.4453 -37.3261 0.0000 0.0000 0.0000 1.2893 -2.2314 7.7570 -4.6526 -12.9816 39.2996 -0.1728 -13.6759 -21.3236 -0.6099 4.9984 -13.9041 -0.9765 0.3287 13.6280 -0.2019 0.2477 -0.1334 0.2889 0.1467 -7.8075 1.6065 -0.2201 -21.7232 -4.8518 0.2614 18.1828 -1.9141 -0.3448 9.3192 -0.0000 0.0000 0.0000 -35.4871 -67.7683 -23.8973 79.4537 -59.5755 -50.8796 -0.0000 0.0000 -70.8695 26.1501 34.7655 15.6405 -7.1250 0.0000 -0.0000 -9.5443 67.4660 -5.1769 -0.0000 0.0000 0.0000 -78.2973 64.1701 -72.2115 -47.7536 52.0483 -24.3913 0.0000 -0.0000 -25.4884 -101.5877 -45.7752 105.9676 7.1250 -0.0000 -0.0000 -30.7833 67.6816 -40.2869
0.00 0.00 0.00 -0.7707 -54.9851 -12.6096 0.0000 0.0000 0.0000 -1.9563 -22.8860 -1.5312 3.9999 12.1602 36.3012 0.2446 -9.0337 -10.1287 4.5408 -12.8472 -38.7992 0.0000 0.0000 0.0000 2.8354 -6.8714 4.9180 -5.4863 -13.9114 42.8836 -1.3109 -9.1146 -26.6705 -1.4164 7.5268 -21.2857 -1.0442 0.5431 14.3867 -1.2202 0.4218 0.8783 -0.7880 0.2027 -7.1436 2.8977 2.7036 -22.5597 -5.8211 4.1070 18.3913 -1.9126 1.4034 9.7369 0.0000 -0.0000 0.0000 -65.6551 -59.2402 4.2741 93.6537 -59.9495 -63.1636 -0.0000 0.0000 -68.5969 19.1854 34.4422 11.1331 -7.1250 0.0000 -0.0000 -17.7835 65.1311 -8.7836 0.0000 -0.0000 0.0000 -58.4812 78.5310 -56.7564 -58.3041 55.8408 -32.9339 0.0000 -0.0000 -17.1582 -99.6002 -56.4749 101.4693 7.1250 -0.0000 -0.0000 -10.7828 65.8694 -14.2593
0.00 0.00 0.00 -1.7465 -54.8384 -11.9457 0.0000 0.0000 0.0000 -0.7455 -24.9221 -0.7996 3.8797 11.9985 35.7268 0.2395 -6.2595 -9.1257 4.7720 -13.1224 -39.8283 0.0000 0.0000 0.0000 4.8371 -7.4388 4.3144 -5.6611 -14.0917 43.6061 -1.5653 -8.8130 -28.2586 -1.3013 7.2269 -20.3894 -1.0021 1.0845 15.5962 -0.8821 1.1490 0.7386 -0.6278 0.5592 -7.9715 2.7263 3.6887 -22.4290 -6.7057 5.7792 19.0379 -1.9480 2.0387 10.0566 0.0000 -0.0000 0.0000 -73.4427 -53.7398 11.6144 97.1435 -59.8063 -66.1825 -0.0000 0.0000 -68.1658 18.1395 34.6386 10.5485 -7.1250 0.0000 -0.0000 -19.1859 65.0233 -9.4514 0.0000 -0.0000 0.0000 -27.3413 82.2102 -25.2220 -61.8339 56.7791 -35.8712 0.0000 -0.0000 -15.0657 -100.0803 -60.6941 101.5226 7.1250 -0.0000 -0.0000 -3.7107 65.5763 -4.9134
